Coordinates
version=1
nRows=9
nColumns=36
inDegrees=yes

Units are S.I. units (second, meters, Newtons, ...)
If the header above contains a line with 'inDegrees', this indicates whether rotational values are in degrees (yes) or radians (no).

endheader
time	pelvis_tilt	pelvis_list	pelvis_rotation	pelvis_tx	pelvis_ty	pelvis_tz	hip_flexion_r	hip_adduction_r	hip_rotation_r	knee_angle_r	knee_angle_r_beta	ankle_angle_r	subtalar_angle_r	mtp_angle_r	hip_flexion_l	hip_adduction_l	hip_rotation_l	knee_angle_l	knee_angle_l_beta	ankle_angle_l	subtalar_angle_l	mtp_angle_l	lumbar_extension	lumbar_bending	lumbar_rotation	arm_flex_r	arm_add_r	arm_rot_r	elbow_flex_r	pro_sup_r	arm_flex_l	arm_add_l	arm_rot_l	elbow_flex_l	pro_sup_l
      0.00000000	      8.35384026	     -2.80038194	     -0.77391965	      0.40987266	      0.85149033	      0.10309558	     14.64374996	     10.78296661	      3.29412738	     39.74985374	      0.69376583	     21.53545950	    -22.73553963	     -6.31785103	     36.34241116	     -8.42185483	      2.06632051	     24.26077881	      0.42343047	     -6.81198820	    -11.81562773	     -6.31785103	    -16.85701846	      7.48696970	      6.10502772	     47.11403337	      4.46467041	     61.70125377	    123.09083006	    103.67520778	     37.22682699	     12.66983359	     64.51611495	    111.53308754	     98.26169460
      0.01666670	      8.60665926	     -0.90304311	     -0.25093511	      0.40911358	      0.84695463	      0.10329853	     14.16645828	      9.32695822	      4.54574715	     42.49407931	      0.74166160	     33.23898131	    -21.32677919	     -6.61842137	     35.65302364	     -6.08589043	      0.47632969	     24.57715983	      0.42895236	     -3.50596183	    -13.10026972	     -6.61842137	    -18.57628769	      4.95432111	      4.80830632	     49.01223455	      4.80525232	     64.80294162	    126.40452604	    102.88305809	     38.82223094	     11.47947044	     67.36513323	    114.03255579	     96.48855897
      0.03333330	      8.10126889	     -0.87249169	     -0.01964746	      0.40803783	      0.84112992	      0.10458775	     15.39511502	      9.98291075	      5.02478063	     43.87859238	      0.76582591	     35.57564813	    -22.34124192	     -6.72680960	     35.63234583	     -5.82076976	      1.11670990	     22.72591718	      0.39664208	     -4.26266520	    -13.32631740	     -6.72680960	    -18.82103823	      5.19362022	      4.68197697	     49.53333888	      5.33743873	     67.28314246	    127.37828376	     99.91345686	     38.97038598	     10.61597856	     68.51321064	    115.73218110	     93.71200481
      0.05000000	      8.70961077	     -0.91252085	      0.90118558	      0.40156435	      0.83786402	      0.10155870	     15.14024372	     10.05636972	      3.78918821	     45.00950053	      0.78556398	     38.37320576	    -21.17686143	     -6.74639007	     35.95503544	     -5.18275498	      2.66674577	     22.60513494	      0.39453403	     -5.10289602	    -14.16665358	     -6.74639007	    -20.48248731	      5.35034729	      4.32649041	     50.83733393	      5.10364366	     68.73713953	    127.78858029	    100.28840670	     40.64023360	     11.00816351	     69.22159609	    115.82823373	     93.02592819
      0.06666670	      9.07504781	     -1.15164187	      1.34476411	      0.39950081	      0.83423016	      0.10284083	     16.36091880	     10.29620823	      3.72286627	     46.87065022	      0.81804717	     38.94762566	    -21.18683703	     -6.75482278	     36.80348559	     -5.12441031	      3.69392083	     23.64418730	      0.41266892	     -6.02789107	    -14.79923169	     -6.75482278	    -21.93969096	      5.95188774	      4.39145637	     51.46119548	      4.94132259	     69.45739918	    127.80624168	    100.30611100	     41.21873224	     11.38848111	     69.97325092	    116.20240007	     92.56873695
      0.08333330	      9.60711937	     -0.83073086	      2.37281013	      0.39865757	      0.82908974	      0.10295539	     16.62353957	      9.84853882	      2.81504449	     48.69544367	      0.84989582	     40.37320938	    -20.73005740	     -6.96746656	     37.38665725	     -4.17230753	      4.93202149	     24.45000707	      0.42673313	     -7.55219805	    -16.80833431	     -6.96746656	    -22.95259836	      5.86126573	      3.99378921	     52.06552564	      4.76236700	     69.83322301	    127.92395633	     95.16519309	     42.37741398	     12.02246160	     71.07582739	    116.34845497	     85.64097974
      0.10000000	     10.08631075	     -1.09636363	      2.62011328	      0.39716667	      0.82712995	      0.10325751	     17.56598650	     10.15950270	      3.00782116	     50.57802092	      0.88275299	     40.36011799	    -21.10628673	     -6.97242770	     37.62654497	     -4.24258280	      5.68668039	     24.57118096	      0.42884801	     -8.21944282	    -16.75906466	     -6.97242770	    -23.98278462	      6.06103717	      3.92475591	     52.94580165	      4.43725137	     69.59611835	    127.72241174	     95.28969387	     43.09871839	     12.14065085	     70.83957666	    116.19269373	     85.34667754
      0.11666670	     10.85297392	     -0.82368204	      2.95091354	      0.39692115	      0.82691366	      0.10328951	     17.37215936	     10.12437117	      2.94661891	     51.94043084	      0.90653153	     40.66175006	    -21.61131983	     -6.99498975	     37.11428276	     -3.80222110	      5.89313917	     24.23755472	      0.42302513	     -8.97674414	    -17.35351483	     -6.99498975	    -25.23492980	      5.57191214	      3.50163049	     53.67729151	      4.29126727	     69.96405941	    127.66258060	     94.92137350	     43.80039851	     12.29105196	     71.24629126	    116.23260629	     84.29431949
      0.13333330	     11.54963738	     -1.02632938	      2.86654545	      0.39558204	      0.82143147	      0.10355511	     17.82522235	     10.62848257	      3.37483186	     53.57498555	      0.93505989	     40.56153580	    -22.45363803	     -7.11242173	     36.76727147	     -4.07749044	      6.03416256	     23.67386834	      0.41318695	     -9.23648712	    -17.29802848	     -7.11242173	    -26.52469261	      5.62298195	      3.02914424	     54.76086395	      4.40381353	     70.44426522	    126.95783355	     95.63007324	     44.02914728	     12.14765395	     71.73990466	    116.08223481	     76.76642804
